<svg width="1920" height="376" viewBox="0 0 1920 376" fill="none" xmlns="http://www.w3.org/2000/svg">
<g clip-path="url(#clip0_709_19463)">
<path d="M133.213 429.66C103.883 429.66 78.5361 422.368 57.1703 407.781C35.9985 393.192 19.586 373.353 7.93189 348.263C-3.5279 322.978 -9.25781 294.581 -9.25781 263.072C-9.25781 231.369 -3.43079 203.07 8.22325 178.174C19.8773 153.083 36.3872 133.342 57.7531 118.949C79.3131 104.362 104.855 97.0677 134.378 97.0677C164.096 97.0677 189.055 104.362 209.255 118.949C229.65 133.342 244.994 153.083 255.289 178.174C265.777 203.264 271.022 231.564 271.022 263.072C271.022 294.581 265.777 322.881 255.289 347.971C244.8 373.061 229.359 392.998 208.964 407.781C188.569 422.368 163.319 429.66 133.213 429.66ZM141.662 374.52C161.668 374.52 177.984 369.755 190.609 360.224C203.234 350.694 212.46 337.565 218.287 320.838C224.114 304.111 227.028 284.856 227.028 263.072C227.028 241.288 224.017 222.033 217.996 205.306C212.169 188.579 203.04 175.548 190.609 166.212C178.372 156.876 162.737 152.208 143.701 152.208C123.501 152.208 106.894 157.168 93.8803 167.087C80.8669 177.007 71.1551 190.33 64.7455 207.057C58.53 223.783 55.4223 242.456 55.4223 263.072C55.4223 283.884 58.53 302.75 64.7455 319.672C71.1551 336.398 80.6724 349.721 93.2979 359.641C106.117 369.56 122.239 374.52 141.662 374.52ZM227.028 420.908V194.22H220.035V0.791016H281.219V420.908H227.028Z" fill="#F9F8FB"/>
<path d="M444.03 429.663C412.758 429.663 385.274 422.855 361.578 409.239C338.076 395.431 319.72 376.273 306.513 351.766C293.499 327.065 286.992 298.474 286.992 265.992C286.992 231.566 293.402 201.711 306.221 176.426C319.235 151.141 337.299 131.594 360.413 117.784C383.527 103.975 410.429 97.0703 441.118 97.0703C473.166 97.0703 500.455 104.559 522.987 119.535C545.518 134.317 562.317 155.42 573.391 182.844C584.654 210.269 589.123 242.847 586.794 280.58H525.899V258.407C525.511 221.841 518.518 194.806 504.925 177.301C491.521 159.796 471.03 151.044 443.447 151.044C412.952 151.044 390.033 160.672 374.689 179.927C359.344 199.182 351.672 226.996 351.672 263.367C351.672 297.987 359.344 324.828 374.689 343.889C390.033 362.755 412.176 372.189 441.118 372.189C460.151 372.189 476.565 367.91 490.357 359.352C504.338 350.599 515.218 338.151 522.987 322.008L582.713 340.972C570.479 369.174 551.929 391.055 527.064 406.617C502.203 421.982 474.525 429.663 444.03 429.663ZM331.86 280.58V233.025H556.493V280.58H331.86Z" fill="#F9F8FB"/>
<path d="M773.939 420.907C754.13 424.795 734.704 426.45 715.671 425.867C696.634 425.283 679.642 421.586 664.685 414.782C649.729 407.974 638.461 397.274 630.886 382.688C624.088 369.656 620.399 356.431 619.817 343.01C619.428 329.395 619.234 314.03 619.234 296.914V18.2949H680.418V293.996C680.418 306.639 680.513 317.628 680.707 326.964C681.096 336.3 683.136 344.177 686.829 350.596C693.817 362.655 704.891 369.559 720.041 371.31C735.386 372.866 753.353 372.185 773.939 369.268V420.907ZM558.922 154.833V105.819H773.939V154.833H558.922Z" fill="#F9F8FB"/>
<path d="M907.34 429.663C876.068 429.663 848.584 422.855 824.888 409.239C801.386 395.431 783.03 376.273 769.825 351.766C756.81 327.065 750.305 298.474 750.305 265.992C750.305 231.566 756.711 201.711 769.532 176.426C782.547 151.141 800.609 131.594 823.723 117.784C846.837 103.975 873.738 97.0703 904.428 97.0703C936.476 97.0703 963.765 104.559 986.297 119.535C1008.83 134.317 1025.63 155.42 1036.7 182.844C1047.97 210.269 1052.43 242.847 1050.1 280.58H989.213V258.407C988.82 221.841 981.832 194.806 968.234 177.301C954.831 159.796 934.34 151.044 906.757 151.044C876.262 151.044 853.342 160.672 837.998 179.927C822.653 199.182 814.983 226.996 814.983 263.367C814.983 297.987 822.653 324.828 837.998 343.889C853.342 362.755 875.486 372.189 904.428 372.189C923.465 372.189 939.875 367.91 953.666 359.352C967.652 350.599 978.527 338.151 986.297 322.008L1046.02 340.972C1033.79 369.174 1015.24 391.055 990.377 406.617C965.512 421.982 937.834 429.663 907.34 429.663ZM795.169 280.58V233.025H1019.8V280.58H795.169Z" fill="#F9F8FB"/>
<path d="M1191.81 429.663C1159.56 429.663 1132.17 422.466 1109.64 408.073C1087.11 393.681 1069.83 373.939 1057.78 348.849C1045.93 323.759 1039.91 295.264 1039.72 263.367C1039.91 230.886 1046.13 202.197 1058.36 177.301C1070.6 152.211 1088.08 132.566 1110.81 118.368C1133.53 104.169 1160.82 97.0703 1192.68 97.0703C1227.06 97.0703 1256.39 105.628 1280.67 122.744C1305.14 139.86 1321.26 163.297 1329.03 193.056L1268.43 210.56C1262.41 192.861 1252.5 179.149 1238.71 169.424C1225.12 159.504 1209.48 154.545 1191.81 154.545C1171.8 154.545 1155.38 159.31 1142.57 168.84C1129.75 178.176 1120.23 191.013 1114.01 207.351C1107.8 223.689 1104.59 242.361 1104.4 263.367C1104.59 295.848 1111.97 322.105 1126.54 342.139C1141.3 362.172 1163.06 372.189 1191.81 372.189C1211.42 372.189 1227.25 367.715 1239.29 358.768C1251.53 349.627 1260.85 336.595 1267.26 319.674L1329.03 334.261C1318.74 364.992 1301.74 388.624 1278.04 405.157C1254.35 421.494 1225.6 429.663 1191.81 429.663Z" fill="#F9F8FB"/>
<path d="M1510.17 420.907C1490.36 424.795 1470.94 426.45 1451.9 425.867C1432.87 425.283 1415.87 421.586 1400.92 414.782C1385.96 407.974 1374.7 397.274 1367.12 382.688C1360.32 369.656 1356.63 356.431 1356.05 343.01C1355.66 329.395 1355.46 314.03 1355.46 296.914V18.2949H1416.65V293.996C1416.65 306.639 1416.75 317.628 1416.94 326.964C1417.33 336.3 1419.37 344.177 1423.06 350.596C1430.05 362.655 1441.12 369.559 1456.27 371.31C1471.62 372.866 1489.58 372.185 1510.17 369.268V420.907ZM1295.16 154.833V105.819H1510.17V154.833H1295.16Z" fill="#F9F8FB"/>
<path d="M1518.25 420.908V105.82H1572.44V182.258L1564.87 172.338C1568.75 162.224 1573.8 152.986 1580.02 144.622C1586.23 136.064 1593.42 129.062 1601.58 123.616C1609.54 117.781 1618.38 113.308 1628.09 110.196C1638 106.889 1648.09 104.945 1658.39 104.361C1668.68 103.583 1678.59 104.069 1688.11 105.82V163.002C1677.81 160.279 1666.35 159.501 1653.73 160.668C1641.3 161.835 1629.84 165.822 1619.35 172.63C1609.44 179.048 1601.58 186.829 1595.75 195.97C1590.12 205.111 1586.04 215.322 1583.51 226.603C1580.99 237.69 1579.72 249.457 1579.72 261.905V420.908H1518.25Z" fill="#F9F8FB"/>
<path d="M1765.07 429.663C1741.76 429.663 1722.24 425.382 1706.51 416.825C1690.77 408.073 1678.83 396.598 1670.67 382.4C1662.71 368.007 1658.73 352.253 1658.73 335.137C1658.73 319.188 1661.54 305.184 1667.18 293.125C1672.81 281.066 1681.16 270.855 1692.23 262.492C1703.3 253.933 1716.9 247.029 1733.02 241.777C1747.01 237.693 1762.84 234.095 1780.51 230.983C1798.19 227.871 1816.74 224.953 1836.16 222.23C1855.78 219.507 1875.2 216.784 1894.43 214.061L1872.29 226.315C1872.67 201.614 1867.43 183.331 1856.55 171.466C1845.87 159.407 1827.42 153.378 1801.2 153.378C1784.69 153.378 1769.54 157.268 1755.75 165.048C1741.95 172.633 1732.34 185.276 1726.9 202.975L1670.09 185.47C1677.86 158.435 1692.62 136.943 1714.38 120.994C1736.32 105.045 1765.46 97.0703 1801.78 97.0703C1829.95 97.0703 1854.42 101.933 1875.2 111.658C1896.18 121.188 1911.52 136.359 1921.24 157.17C1926.28 167.479 1929.39 178.371 1930.56 189.846C1931.72 201.322 1932.31 213.672 1932.31 226.898V420.911H1878.41V348.849L1888.89 358.185C1875.88 382.303 1859.28 400.293 1839.07 412.159C1819.07 423.827 1794.4 429.663 1765.07 429.663ZM1775.85 379.774C1793.13 379.774 1808 376.759 1820.42 370.73C1832.86 364.506 1842.86 356.629 1850.44 347.098C1858.01 337.568 1862.96 327.648 1865.29 317.34C1868.6 308.004 1870.44 297.501 1870.83 285.831C1871.41 274.161 1871.7 264.826 1871.7 257.823L1891.52 265.117C1872.29 268.035 1854.81 270.66 1839.07 272.994C1823.34 275.328 1809.07 277.662 1796.24 279.996C1783.62 282.136 1772.35 284.761 1762.45 287.873C1754.09 290.791 1746.62 294.292 1740.01 298.376C1733.6 302.461 1728.46 307.421 1724.57 313.255C1720.88 319.091 1719.04 326.19 1719.04 334.553C1719.04 342.722 1721.08 350.307 1725.16 357.309C1729.23 364.117 1735.45 369.563 1743.8 373.647C1752.15 377.732 1762.84 379.774 1775.85 379.774Z" fill="#F9F8FB"/>
</g>
<defs>
<clipPath id="clip0_709_19463">
<rect width="1945.3" height="431.85" fill="white" transform="translate(-13)"/>
</clipPath>
</defs>
</svg>
