<svg width="108" height="24" viewBox="0 0 108 24" fill="none" xmlns="http://www.w3.org/2000/svg">
<g clip-path="url(#clip0_4001_3718)">
<path d="M8.12066 23.8449C6.49234 23.8449 5.08511 23.4402 3.89891 22.6306C2.72349 21.821 1.81229 20.7199 1.16528 19.3274C0.529053 17.9241 0.210938 16.3481 0.210938 14.5994C0.210938 12.8399 0.534444 11.2693 1.18146 9.88758C1.82847 8.49509 2.74507 7.39944 3.93127 6.60066C5.12824 5.79106 6.54628 5.38626 8.18537 5.38626C9.83526 5.38626 11.2209 5.79106 12.3424 6.60066C13.4747 7.39944 14.3266 8.49509 14.8981 9.88758C15.4804 11.2801 15.7716 12.8507 15.7716 14.5994C15.7716 16.3481 15.4804 17.9187 14.8981 19.3112C14.3158 20.7037 13.4585 21.8102 12.3263 22.6306C11.194 23.4402 9.79213 23.8449 8.12066 23.8449ZM8.58974 20.7847C9.70045 20.7847 10.6063 20.5202 11.3072 19.9913C12.0081 19.4623 12.5203 18.7337 12.8439 17.8054C13.1674 16.877 13.3291 15.8084 13.3291 14.5994C13.3291 13.3904 13.162 12.3218 12.8277 11.3934C12.5042 10.4651 11.9974 9.74186 11.3072 9.22373C10.6278 8.70559 9.75977 8.44652 8.70298 8.44652C7.58149 8.44652 6.65949 8.72177 5.93699 9.2723C5.21451 9.82282 4.67532 10.5622 4.31947 11.4906C3.9744 12.4189 3.80187 13.4552 3.80187 14.5994C3.80187 15.7544 3.9744 16.8015 4.31947 17.7406C4.67532 18.6689 5.20371 19.4084 5.90465 19.9589C6.61635 20.5094 7.51139 20.7847 8.58974 20.7847ZM13.3291 23.3592V10.7781H12.9409V0.0429688H16.3377V23.3592H13.3291Z" fill="#171717"/>
<path d="M25.3747 23.8454C23.6386 23.8454 22.1127 23.4676 20.7971 22.7119C19.4923 21.9456 18.4733 20.8823 17.74 19.5222C17.0175 18.1513 16.6562 16.5645 16.6562 14.7618C16.6562 12.8511 17.0121 11.1942 17.7238 9.79089C18.4463 8.3876 19.4492 7.30276 20.7324 6.53634C22.0157 5.76993 23.5092 5.38672 25.213 5.38672C26.9923 5.38672 28.5074 5.80231 29.7583 6.63349C31.0092 7.45389 31.9418 8.62509 32.5566 10.1471C33.1819 11.6691 33.4301 13.4772 33.3007 15.5714H29.9199V14.3408C29.8984 12.3114 29.5102 10.811 28.7555 9.83947C28.0114 8.86797 26.8737 8.38221 25.3424 8.38221C23.6493 8.38221 22.3769 8.91655 21.525 9.98521C20.6731 11.0539 20.2472 12.5975 20.2472 14.6161C20.2472 16.5375 20.6731 18.0271 21.525 19.085C22.3769 20.1321 23.6062 20.6556 25.213 20.6556C26.2697 20.6556 27.181 20.4181 27.9467 19.9432C28.7229 19.4574 29.3269 18.7665 29.7583 17.8706L33.0742 18.9231C32.3949 20.4883 31.3651 21.7027 29.9846 22.5663C28.6044 23.4191 27.0677 23.8454 25.3747 23.8454ZM19.1472 15.5714V12.9321H31.6185V15.5714H19.1472Z" fill="#171717"/>
<path d="M43.6874 23.3603C42.5876 23.5761 41.5092 23.6679 40.4525 23.6356C39.3956 23.6032 38.4522 23.398 37.6218 23.0204C36.7915 22.6425 36.1659 22.0487 35.7453 21.2392C35.3679 20.5159 35.1631 19.7819 35.1308 19.0371C35.1092 18.2815 35.0984 17.4287 35.0984 16.4788V1.01562H38.4953V16.3169C38.4953 17.0185 38.5005 17.6284 38.5113 18.1466C38.5329 18.6647 38.6462 19.1019 38.8512 19.4581C39.2392 20.1273 39.854 20.5106 40.6951 20.6077C41.547 20.6941 42.5445 20.6563 43.6874 20.4944V23.3603ZM31.75 8.59339V5.87317H43.6874V8.59339H31.75Z" fill="#171717"/>
<path d="M51.0933 23.8454C49.3572 23.8454 47.8313 23.4676 46.5157 22.7119C45.2109 21.9456 44.1919 20.8823 43.4587 19.5222C42.7362 18.1513 42.375 16.5645 42.375 14.7618C42.375 12.8511 42.7307 11.1942 43.4425 9.79089C44.165 8.3876 45.1678 7.30276 46.4511 6.53634C47.7343 5.76993 49.2278 5.38672 50.9316 5.38672C52.7109 5.38672 54.226 5.80231 55.4769 6.63349C56.7278 7.45389 57.6606 8.62509 58.2752 10.1471C58.9008 11.6691 59.1486 13.4772 59.0193 15.5714H55.6388V14.3408C55.617 12.3114 55.229 10.811 54.4741 9.83947C53.73 8.86797 52.5923 8.38221 51.061 8.38221C49.3679 8.38221 48.0955 8.91655 47.2436 9.98521C46.3917 11.0539 45.9658 12.5975 45.9658 14.6161C45.9658 16.5375 46.3917 18.0271 47.2436 19.085C48.0955 20.1321 49.3248 20.6556 50.9316 20.6556C51.9885 20.6556 52.8996 20.4181 53.6653 19.9432C54.4417 19.4574 55.0455 18.7665 55.4769 17.8706L58.7928 18.9231C58.1135 20.4883 57.0837 21.7027 55.7034 22.5663C54.323 23.4191 52.7863 23.8454 51.0933 23.8454ZM44.8658 15.5714V12.9321H57.3371V15.5714H44.8658Z" fill="#171717"/>
<path d="M66.8889 23.8454C65.0989 23.8454 63.5783 23.446 62.3274 22.6471C61.0765 21.8484 60.1168 20.7528 59.4481 19.3602C58.7904 17.9678 58.4561 16.3864 58.4453 14.6161C58.4561 12.8134 58.8012 11.2212 59.4804 9.83947C60.1599 8.44698 61.1304 7.35672 62.392 6.56873C63.6537 5.78071 65.1688 5.38672 66.9373 5.38672C68.8461 5.38672 70.4744 5.86168 71.8224 6.81161C73.181 7.76153 74.0761 9.06226 74.5074 10.7138L71.1429 11.6853C70.8086 10.703 70.2587 9.94203 69.493 9.40229C68.7383 8.85177 67.8701 8.57652 66.8889 8.57652C65.7781 8.57652 64.8668 8.84098 64.1552 9.3699C63.4434 9.88804 62.9151 10.6005 62.57 11.5072C62.2249 12.414 62.0469 13.4502 62.0361 14.6161C62.0469 16.4187 62.4567 17.876 63.2655 18.9878C64.0851 20.0997 65.2929 20.6556 66.8889 20.6556C67.9779 20.6556 68.8569 20.4073 69.5253 19.9108C70.2048 19.4034 70.7223 18.6802 71.0782 17.7411L74.5074 18.5507C73.9359 20.2562 72.9923 21.5677 71.6767 22.4853C70.3612 23.392 68.7651 23.8454 66.8889 23.8454Z" fill="#171717"/>
<path d="M84.5624 23.3603C83.4624 23.5761 82.3841 23.6679 81.3272 23.6356C80.2706 23.6032 79.3269 23.398 78.4966 23.0204C77.6662 22.6425 77.0409 22.0487 76.6203 21.2392C76.2429 20.5159 76.0379 19.7819 76.0056 19.0371C75.984 18.2815 75.9732 17.4287 75.9732 16.4788V1.01562H79.3701V16.3169C79.3701 17.0185 79.3756 17.6284 79.3863 18.1466C79.4079 18.6647 79.5212 19.1019 79.7259 19.4581C80.1142 20.1273 80.7287 20.5106 81.5699 20.6077C82.4218 20.6941 83.4193 20.6563 84.5624 20.4944V23.3603ZM72.625 8.59339V5.87317H84.5624V8.59339H72.625Z" fill="#171717"/>
<path d="M85.0156 23.3595V5.87238H88.0242V10.1146L87.6037 9.56411C87.8194 9.00279 88.0997 8.49005 88.4448 8.02588C88.7899 7.55092 89.1889 7.16232 89.6418 6.86008C90.0839 6.53623 90.5747 6.28795 91.1138 6.11524C91.6637 5.93174 92.2243 5.8238 92.796 5.79142C93.3675 5.74824 93.9174 5.77521 94.4459 5.87238V9.04597C93.8743 8.89483 93.2381 8.85166 92.5371 8.91644C91.8469 8.98119 91.2108 9.20248 90.6285 9.58029C90.0784 9.9365 89.6418 10.3683 89.3182 10.8756C89.0055 11.383 88.7791 11.9497 88.6388 12.5758C88.4987 13.1911 88.4285 13.8441 88.4285 14.535V23.3595H85.0156Z" fill="#171717"/>
<path d="M98.7164 23.8454C97.4224 23.8454 96.3387 23.6078 95.4652 23.1329C94.5917 22.6471 93.9286 22.0103 93.4757 21.2223C93.0336 20.4235 92.8125 19.5492 92.8125 18.5992C92.8125 17.7141 92.9689 16.9369 93.2817 16.2676C93.5942 15.5984 94.0579 15.0316 94.6727 14.5675C95.2873 14.0925 96.0422 13.7093 96.9372 13.4179C97.7136 13.1912 98.5926 12.9915 99.5738 12.8188C100.555 12.6461 101.585 12.4841 102.663 12.333C103.752 12.1819 104.831 12.0308 105.898 11.8796L104.669 12.5597C104.691 11.1888 104.4 10.1741 103.796 9.51564C103.202 8.84637 102.178 8.51174 100.722 8.51174C99.8057 8.51174 98.9645 8.72763 98.1989 9.15941C97.4332 9.5804 96.8996 10.2821 96.5976 11.2643L93.4433 10.2928C93.8747 8.79241 94.6942 7.59961 95.902 6.71445C97.1206 5.82931 98.738 5.38672 100.755 5.38672C102.318 5.38672 103.677 5.6566 104.831 6.19631C105.995 6.72526 106.847 7.56722 107.387 8.72223C107.667 9.29434 107.839 9.89885 107.904 10.5357C107.969 11.1726 108.001 11.858 108.001 12.5921V23.3597H105.009V19.3602L105.591 19.8784C104.868 21.2169 103.947 22.2154 102.825 22.8739C101.714 23.5215 100.345 23.8454 98.7164 23.8454ZM99.3149 21.0766C100.275 21.0766 101.1 20.9093 101.79 20.5746C102.48 20.2292 103.035 19.792 103.456 19.2631C103.876 18.7342 104.151 18.1837 104.281 17.6115C104.464 17.0934 104.566 16.5105 104.588 15.8628C104.621 15.2152 104.637 14.697 104.637 14.3084L105.737 14.7132C104.669 14.8751 103.699 15.0208 102.825 15.1504C101.952 15.2799 101.159 15.4095 100.447 15.539C99.7463 15.6577 99.1209 15.8034 98.5708 15.9762C98.1071 16.1381 97.6921 16.3324 97.3254 16.5591C96.9695 16.7858 96.6838 17.061 96.4682 17.3848C96.2632 17.7087 96.1607 18.1027 96.1607 18.5669C96.1607 19.0202 96.274 19.4412 96.5006 19.8298C96.7269 20.2076 97.072 20.5099 97.5357 20.7365C97.9994 20.9632 98.5926 21.0766 99.3149 21.0766Z" fill="#171717"/>
</g>
<defs>
<clipPath id="clip0_4001_3718">
<rect width="108" height="24" fill="white"/>
</clipPath>
</defs>
</svg>
